<svg width="35" height="35" viewBox="0 0 35 35" fill="none" xmlns="http://www.w3.org/2000/svg">
<g id="facebook">
<path id="Oval" d="M17.5 35C27.165 35 35 27.165 35 17.5C35 7.83502 27.165 0 17.5 0C7.83502 0 0 7.83502 0 17.5C0 27.165 7.83502 35 17.5 35Z" fill="url(#paint0_linear)"/>
<path id="Path" d="M21.5973 18.4778H18.6312V30H14.1373V18.4778H12V14.4285H14.1373V11.8081C14.1373 9.93427 14.9768 7 18.6712 7L22 7.01477V10.9453H19.5847C19.1886 10.9453 18.6315 11.1552 18.6315 12.0491V14.4323H21.9899L21.5973 18.4778Z" fill="white"/>
</g>
<defs>
<linearGradient id="paint0_linear" x1="35" y1="0" x2="0" y2="0" gradientUnits="userSpaceOnUse">
<stop stop-color="#0ED0FA"/>
<stop offset="1" stop-color="#167FEF"/>
</linearGradient>
</defs>
</svg>
