<svg width="35" height="35" viewBox="0 0 35 35" fill="none" xmlns="http://www.w3.org/2000/svg">
<g id="instagram">
<path id="Oval" fill-rule="evenodd" clip-rule="evenodd" d="M18 33C26.2843 33 33 26.2843 33 18C33 9.71573 26.2843 3 18 3C9.71573 3 3 9.71573 3 18C3 26.2843 9.71573 33 18 33Z" fill="white"/>
<path id="Combined Shape" fill-rule="evenodd" clip-rule="evenodd" d="M17.5 0C7.8354 0 0 7.8354 0 17.5C0 27.1646 7.8354 35 17.5 35C27.1646 35 35 27.1646 35 17.5C35 7.8354 27.1646 0 17.5 0ZM28.0267 22.763C28.0267 25.6918 25.6446 28.0739 22.7158 28.0739H12.2842C9.35577 28.0739 6.97325 25.6918 6.97325 22.763V12.3314C6.97325 9.40295 9.35577 7.02043 12.2842 7.02043H22.7158C25.6446 7.02043 28.0267 9.40295 28.0267 12.3314V22.763ZM25.7359 12.3314C25.7359 10.6663 24.3812 9.3117 22.7158 9.3117H12.2842C10.6192 9.3117 9.26452 10.6663 9.26452 12.3314V22.763C9.26452 24.428 10.6192 25.7831 12.2842 25.7831H22.7158C24.3808 25.7831 25.7359 24.4284 25.7359 22.763V12.3314ZM17.5 22.9697C14.5104 22.9697 12.0779 20.5372 12.0779 17.5472C12.0779 14.5575 14.5104 12.1251 17.5 12.1251C20.49 12.1251 22.9225 14.5575 22.9225 17.5472C22.9225 20.5368 20.4897 22.9697 17.5 22.9697ZM21.8135 11.9633C21.8135 12.6706 22.389 13.2462 23.0968 13.2462C23.8041 13.2462 24.3797 12.6706 24.3797 11.9633C24.3797 11.2559 23.8041 10.6804 23.0968 10.6804C22.389 10.6804 21.8135 11.2559 21.8135 11.9633ZM17.5 14.4164C15.7741 14.4164 14.3688 15.8209 14.3688 17.5468C14.3688 19.2734 15.7741 20.6784 17.5 20.6784C19.2266 20.6784 20.6308 19.2734 20.6308 17.5468C20.6308 15.8213 19.2263 14.4164 17.5 14.4164Z" fill="url(#paint0_linear)"/>
</g>
<defs>
<linearGradient id="paint0_linear" x1="35" y1="0" x2="0" y2="0" gradientUnits="userSpaceOnUse">
<stop stop-color="#0ED0FA"/>
<stop offset="1" stop-color="#167FEF"/>
</linearGradient>
</defs>
</svg>
