<svg width="30" height="30" viewBox="0 0 30 30" fill="none" xmlns="http://www.w3.org/2000/svg">
<path id="Shape" fill-rule="evenodd" clip-rule="evenodd" d="M17.3288 15.0346L29.6192 2.50234C30.1479 1.92553 30.1243 1.03342 29.5658 0.485351C29.0073 -0.0627142 28.1149 -0.0694665 27.5482 0.470084L15.2772 12.983L2.503 0.450729C2.13729 0.0665913 1.59118 -0.0875107 1.07861 0.0487896C0.56604 0.18509 0.168608 0.590092 0.0420024 1.10514C-0.0846033 1.6202 0.0797742 2.1633 0.470743 2.5217L13.2256 15.0346L0.470743 27.5475C-0.0688072 28.1143 -0.0620549 29.0067 0.48601 29.5652C1.03407 30.1237 1.92619 30.1473 2.503 29.6185L15.2772 17.0862L27.5482 29.5991C28.1149 30.1387 29.0073 30.1319 29.5658 29.5839C30.1243 29.0358 30.1479 28.1437 29.6192 27.5669L17.3288 15.0346Z" fill="url(#paint0_linear)"/>
<defs>
<linearGradient id="paint0_linear" x1="0" y1="30.0001" x2="30.0007" y2="30.0001" gradientUnits="userSpaceOnUse">
<stop stop-color="#0ED0FA"/>
<stop offset="1" stop-color="#167FEF"/>
</linearGradient>
</defs>
</svg>
