<svg width="33" height="31" viewBox="0 0 33 31" fill="none" xmlns="http://www.w3.org/2000/svg">
<g id="lens">
<path id="Combined Shape" d="M22.5303 21.4697L21.8232 20.7626L21.1161 21.4697L21.8232 22.1768L22.5303 21.4697ZM30.5303 29.4697L29.8232 30.1768L30.5303 30.8839L31.2374 30.1768L30.5303 29.4697ZM22.8839 21.1161L23.591 20.409L22.8839 19.7019L22.1768 20.409L22.8839 21.1161ZM30.8839 29.1161L31.591 29.8232L32.2981 29.1161L31.591 28.409L30.8839 29.1161ZM13.5 0.75C6.45837 0.75 0.75 6.45837 0.75 13.5H2.75C2.75 7.56294 7.56294 2.75 13.5 2.75V0.75ZM26.25 13.5C26.25 6.45837 20.5416 0.75 13.5 0.75V2.75C19.4371 2.75 24.25 7.56294 24.25 13.5H26.25ZM13.5 26.25C20.5416 26.25 26.25 20.5416 26.25 13.5H24.25C24.25 19.4371 19.4371 24.25 13.5 24.25V26.25ZM0.75 13.5C0.75 20.5416 6.45837 26.25 13.5 26.25V24.25C7.56294 24.25 2.75 19.4371 2.75 13.5H0.75ZM3.25 13.5C3.25 7.83908 7.83908 3.25 13.5 3.25V1.25C6.73451 1.25 1.25 6.73451 1.25 13.5H3.25ZM13.5 23.75C7.83908 23.75 3.25 19.1609 3.25 13.5H1.25C1.25 20.2655 6.73451 25.75 13.5 25.75V23.75ZM23.75 13.5C23.75 19.1609 19.1609 23.75 13.5 23.75V25.75C20.2655 25.75 25.75 20.2655 25.75 13.5H23.75ZM13.5 3.25C19.1609 3.25 23.75 7.83908 23.75 13.5H25.75C25.75 6.73451 20.2655 1.25 13.5 1.25V3.25ZM21.8232 22.1768L29.8232 30.1768L31.2374 28.7626L23.2374 20.7626L21.8232 22.1768ZM22.1768 20.409L21.8232 20.7626L23.2374 22.1768L23.591 21.8232L22.1768 20.409ZM31.591 28.409L23.591 20.409L22.1768 21.8232L30.1768 29.8232L31.591 28.409ZM31.2374 30.1768L31.591 29.8232L30.1768 28.409L29.8232 28.7626L31.2374 30.1768Z" fill="url(#paint0_linear)"/>
</g>
<defs>
<linearGradient id="paint0_linear" x1="1.75" y1="29.4697" x2="30.8839" y2="29.4697" gradientUnits="userSpaceOnUse">
<stop stop-color="#0ED0FA"/>
<stop offset="1" stop-color="#167FEF"/>
</linearGradient>
</defs>
</svg>
