<svg width="150" height="50" viewBox="0 0 150 50" fill="none" xmlns="http://www.w3.org/2000/svg">
<mask id="mask0" mask-type="alpha" maskUnits="userSpaceOnUse" x="0" y="0" width="150" height="50">
<path fill-rule="evenodd" clip-rule="evenodd" d="M68.8196 49.2089L50.2333 0.791139H62.6582L75 33.0696L87.4287 0.791139H99.7948L81.2131 49.2089H68.8196ZM37.0631 33.2278H48.6061C48.6061 33.3619 43.2152 50 25.0516 50C6.84472 50 1.49722 33.2278 1.49722 33.2278C1.49722 33.2278 5.2784 33.2278 12.8408 33.2278C12.8537 33.4954 17.1416 39.5256 24.9943 39.5529C32.5067 39.5529 36.0623 34.4537 37.0631 33.2278ZM25.6329 28.1762C8.71532 28.167 0.256348 28.1611 0.255986 28.1585C0.0864744 26.9582 0 25.7428 0 24.522C0 10.7779 11.8839 0 25.6329 0C38.4459 0 50 11.325 50 24.8404C50 25.9659 49.9251 27.0798 49.7796 28.1762C49.7792 28.179 41.7303 28.179 25.6329 28.1762ZM38.4244 19.6203C38.4119 19.5855 34.6649 10.4366 25.188 10.4366C14.3867 10.4366 11.4195 19.6203 11.4195 19.6203C29.4227 19.6203 38.4244 19.6203 38.4244 19.6203ZM125.633 49.9993C109.961 50.1041 100 37.6243 100 24.522C100 10.7779 111.884 0 125.633 0C138.446 0 150 11.325 150 24.8404C150 38.189 139.462 49.907 125.633 49.9993ZM125.159 39.5574C133.487 39.5117 139.694 32.4778 139.555 25C139.408 17.1326 132.797 10.443 125.159 10.443C116.74 10.443 110.443 16.6592 110.443 25.3165C110.443 34.4997 118.313 39.5943 125.159 39.5574Z" fill="white"/>
</mask>
<g mask="url(#mask0)">
<path d="M152.279 50.4957L81.691 50.4957L62.5537 0.70653L148.423 -0.422662L152.279 50.4957Z" fill="url(#paint0_linear)"/>
<path d="M-7.73762 5.24471e-06L62.3908 4.49835e-06L81.5068 50L5.8021 50L-7.73762 5.24471e-06Z" fill="url(#paint1_linear)"/>
</g>
<defs>
<linearGradient id="paint0_linear" x1="149.552" y1="39.0098" x2="130.519" y2="-10.5729" gradientUnits="userSpaceOnUse">
<stop stop-color="#0ED0FA"/>
<stop offset="0.994537" stop-color="#5530EA"/>
</linearGradient>
<linearGradient id="paint1_linear" x1="2.24957" y1="8.70285" x2="21.2885" y2="58.3009" gradientUnits="userSpaceOnUse">
<stop stop-color="#0ED0FA"/>
<stop offset="1" stop-color="#5530EA"/>
</linearGradient>
</defs>
</svg>
