<svg width="35" height="35" viewBox="0 0 35 35" fill="none" xmlns="http://www.w3.org/2000/svg">
<g id="vk">
<path id="XMLID_11_" d="M17.5 35C27.165 35 35 27.165 35 17.5C35 7.83502 27.165 0 17.5 0C7.83502 0 0 7.83502 0 17.5C0 27.165 7.83502 35 17.5 35Z" fill="url(#paint0_linear)"/>
<path id="Path" fill-rule="evenodd" clip-rule="evenodd" d="M16.7637 24.9456H18.0788C18.0788 24.9456 18.476 24.9004 18.6788 24.674C18.8654 24.4661 18.8595 24.0757 18.8595 24.0757C18.8595 24.0757 18.8338 22.248 19.6527 21.9788C20.46 21.7137 21.4967 23.7453 22.5955 24.5264C23.4264 25.1176 24.0577 24.988 24.0577 24.988L26.9957 24.9456C26.9957 24.9456 28.5326 24.8475 27.8039 23.5958C27.7442 23.4934 27.3795 22.6699 25.6195 20.9777C23.7773 19.2067 24.024 19.4931 26.2431 16.4296C27.5945 14.5638 28.1348 13.4248 27.9661 12.9369C27.8051 12.4723 26.8111 12.5951 26.8111 12.5951L23.5031 12.6164C23.5031 12.6164 23.2579 12.5818 23.076 12.6944C22.8983 12.8048 22.7839 13.0622 22.7839 13.0622C22.7839 13.0622 22.2604 14.506 21.5621 15.7338C20.0891 18.3247 19.5001 18.4614 19.2594 18.3006C18.6994 17.9256 18.8392 16.7943 18.8392 15.9906C18.8392 13.4798 19.2068 12.433 18.1233 12.162C17.7637 12.0719 17.499 12.0125 16.5795 12.003C15.3991 11.9903 14.4001 12.0067 13.8344 12.2938C13.4581 12.4846 13.1678 12.91 13.3446 12.9344C13.5632 12.9647 14.0584 13.0727 14.321 13.443C14.6599 13.9207 14.648 14.9935 14.648 14.9935C14.648 14.9935 14.8427 17.9491 14.1931 18.3163C13.7472 18.5682 13.1356 18.054 11.8223 15.7035C11.1494 14.4995 10.6414 13.1686 10.6414 13.1686C10.6414 13.1686 10.5434 12.9199 10.3687 12.7869C10.1567 12.6257 9.86039 12.5743 9.86039 12.5743L6.71694 12.5957C6.71694 12.5957 6.24505 12.6093 6.07182 12.8218C5.91771 13.0108 6.05957 13.4019 6.05957 13.4019C6.05957 13.4019 8.52058 19.3657 11.3071 22.3711C13.8622 25.1265 16.7637 24.9456 16.7637 24.9456Z" fill="white"/>
</g>
<defs>
<linearGradient id="paint0_linear" x1="35" y1="0" x2="0" y2="0" gradientUnits="userSpaceOnUse">
<stop stop-color="#0ED0FA"/>
<stop offset="1" stop-color="#167FEF"/>
</linearGradient>
</defs>
</svg>
