<svg width="21" height="20" viewBox="0 0 23 18" fill="none" xmlns="http://www.w3.org/2000/svg">
<g id="&#208;&#144;&#208;&#186;&#209;&#134;&#208;&#184;&#208;&#184;">
<path id="Combined Shape" fill-rule="evenodd" clip-rule="evenodd" d="M22.5208 6.22918C22.7857 6.22918 23 6.01486 23 5.75V1.91668C23 0.85958 22.1404 0 21.0833 0H1.91668C0.85958 0 0 0.85958 0 1.91668V5.75C0 6.01486 0.214322 6.22918 0.479182 6.22918C1.80015 6.22918 2.875 7.30403 2.875 8.625C2.875 9.94597 1.80015 11.0208 0.479182 11.0208C0.214322 11.0208 0 11.2351 0 11.5V15.3333C0 16.3904 0.85958 17.25 1.91668 17.25H21.0834C22.1404 17.25 23 16.3904 23 15.3333V11.5C23 11.2351 22.7857 11.0208 22.5208 11.0208C21.1998 11.0208 20.125 9.94597 20.125 8.625C20.125 7.30403 21.1998 6.22918 22.5208 6.22918ZM19.1667 8.625C19.1667 10.3119 20.4184 11.712 22.0417 11.945V15.3333C22.0417 15.8616 21.6116 16.2916 21.0834 16.2916H1.91668C1.3884 16.2916 0.958363 15.8616 0.958363 15.3333V11.945C2.58162 11.7119 3.83336 10.3119 3.83336 8.625C3.83336 6.93809 2.58162 5.53801 0.958363 5.305V1.91668C0.958363 1.3884 1.3884 0.958363 1.91668 0.958363H21.0834C21.6116 0.958363 22.0417 1.3884 22.0417 1.91668V5.305C20.4184 5.53801 19.1667 6.93809 19.1667 8.625ZM5.75 2.27606C5.75 2.0112 5.96432 1.79688 6.22918 1.79688C6.49404 1.79688 6.70832 2.0112 6.70836 2.27606V3.35418C6.70836 3.61904 6.49404 3.83336 6.22918 3.83336C5.96432 3.83336 5.75 3.61904 5.75 3.35418V2.27606ZM6.22918 5.75C5.96432 5.75 5.75 5.96432 5.75 6.22918V7.1875C5.75 7.45236 5.96432 7.66668 6.22918 7.66668C6.49404 7.66668 6.70836 7.45236 6.70836 7.1875V6.22918C6.70832 5.96432 6.49404 5.75 6.22918 5.75ZM5.75 10.0625C5.75 9.79764 5.96432 9.58332 6.22918 9.58332C6.49404 9.58332 6.70832 9.79764 6.70836 10.0625V11.0208C6.70836 11.2857 6.49404 11.5 6.22918 11.5C5.96432 11.5 5.75 11.2857 5.75 11.0208V10.0625ZM6.22918 13.4167C5.96432 13.4167 5.75 13.631 5.75 13.8959V14.8542C5.75 15.119 5.96432 15.3334 6.22918 15.3334C6.49404 15.3334 6.70836 15.119 6.70836 14.8542V13.8959C6.70832 13.631 6.49404 13.4167 6.22918 13.4167ZM15.4138 4.0467C15.5603 3.82631 15.8565 3.76688 16.0783 3.91382C16.2987 4.06076 16.3581 4.35787 16.2111 4.5783L10.4611 13.2033C10.369 13.3418 10.2169 13.4167 10.062 13.4167C9.97077 13.4167 9.87859 13.3904 9.7967 13.3362C9.57631 13.1892 9.51688 12.8921 9.66382 12.6717L15.4138 4.0467ZM10.5416 3.83336C11.5987 3.83336 12.4583 4.90821 12.4583 6.22918C12.4583 7.55015 11.5988 8.625 10.5417 8.625C9.48458 8.625 8.625 7.5502 8.625 6.22918C8.625 4.90816 9.48454 3.83336 10.5416 3.83336ZM10.5416 4.79168C10.0223 4.79168 9.58332 5.45006 9.58332 6.22918C9.58332 7.00826 10.0223 7.66668 10.5416 7.66668C11.061 7.66668 11.5 7.00831 11.5 6.22918C11.5 5.45006 11.061 4.79168 10.5416 4.79168ZM15.3333 8.625C14.2763 8.625 13.4166 9.69985 13.4166 11.0208C13.4166 12.3418 14.2762 13.4166 15.3333 13.4166C16.3904 13.4166 17.25 12.3418 17.25 11.0208C17.25 9.69985 16.3904 8.625 15.3333 8.625ZM15.3333 12.4583C14.8139 12.4583 14.375 11.7999 14.375 11.0208C14.375 10.2417 14.8139 9.58332 15.3333 9.58332C15.8527 9.58332 16.2916 10.2417 16.2916 11.0208C16.2916 11.7999 15.8527 12.4583 15.3333 12.4583Z" fill="url(#paint0_linear)"/>
</g>
<defs>
<linearGradient id="paint0_linear" x1="34.5" y1="8.625" x2="17.94" y2="-13.455" gradientUnits="userSpaceOnUse">
<stop stop-color="#0ED0FA"/>
<stop offset="1" stop-color="#167FEF"/>
</linearGradient>
</defs>
</svg>
