<svg width="21" height="20" viewBox="0 0 25 20" fill="none" xmlns="http://www.w3.org/2000/svg">
<g id="&#208;&#146;&#208;&#184;&#208;&#180;&#208;&#181;&#208;&#190;&#208;&#189;&#208;&#176;&#208;&#177;&#208;&#187;&#209;&#142;&#208;&#180;&#208;&#181;&#208;&#189;&#208;&#184;&#208;&#181;">
<path id="Combined Shape" fill-rule="evenodd" clip-rule="evenodd" d="M10.6123 0.334992L24.7372 8.95218C24.904 9.05375 25.0047 9.24541 24.9997 9.45026C24.994 9.65552 24.8837 9.84067 24.7118 9.93244L22.8352 10.9341C22.8837 11.1823 22.9163 11.4252 22.9163 11.6609C22.9163 13.8069 21.2806 15.5533 19.2705 15.5533C19.2315 15.5533 19.1938 15.5479 19.156 15.5426C19.1314 15.5391 19.1069 15.5356 19.0819 15.5336L18.6963 16.358C18.6322 16.4948 18.5178 16.5975 18.3805 16.642C18.3312 16.6578 18.2808 16.6654 18.2304 16.6654C18.1399 16.6654 18.0499 16.6404 17.97 16.591L13.5375 13.8605L12.9652 14.8788C12.539 15.6379 11.7587 16.1093 10.9297 16.1093C10.7602 16.1093 10.5944 16.0747 10.43 16.0367L9.57631 17.4039C8.99546 18.334 8.02351 18.8889 6.97626 18.8889H3.125V19.444C3.125 19.7513 2.89204 20 2.60416 20H0.520841C0.232955 20 0 19.7513 0 19.444V13.8834C0 13.576 0.232955 13.3333 0.520841 13.3333H2.60411C2.892 13.3333 3.12495 13.576 3.12495 13.8834V15.5555H6.97621L7.76907 14.283C7.47444 13.8687 7.29153 13.3675 7.29153 12.8348C7.29153 12.3167 7.45174 11.803 7.74319 11.3887L8.28131 10.6227L5.30236 8.78765C4.60203 8.35651 4.16663 7.55177 4.16663 6.68781C4.16663 6.1877 4.30853 5.70713 4.57708 5.29713L7.31341 1.12452C8.03161 0.0281688 9.52285 -0.330738 10.6123 0.334992ZM1.04163 18.8889H2.08327V14.4445H1.04163V18.8889ZM8.70958 16.7898C8.32252 17.4094 7.67454 17.7794 6.97621 17.7794H3.12495V16.6683H6.97621C7.32615 16.6683 7.65012 16.4833 7.84289 16.1735L8.56412 15.0192L9.45854 15.5915L8.70958 16.7898ZM10.2446 14.7987C10.8509 15.1877 11.7079 14.9577 12.0721 14.3115L12.6351 13.3106L9.1898 11.1903L8.57633 12.0627C8.41969 12.2862 8.33322 12.5624 8.33322 12.8412C8.33322 13.2943 8.55958 13.7207 8.92374 13.9534L10.2446 14.7987ZM18.0117 15.3369L5.82266 7.83526C5.44376 7.60197 5.20827 7.16687 5.20827 6.69973C5.20827 6.42901 5.28507 6.16911 5.43053 5.94723L6.73817 3.95505L19.627 11.8865L18.0117 15.3369ZM20.7003 12.0806L19.61 14.4094C20.8843 14.2297 21.8747 13.0758 21.8747 11.6683C21.8747 11.6243 21.8695 11.5783 21.8643 11.5323L21.8643 11.5322C21.8617 11.5093 21.8592 11.4863 21.8572 11.4636L20.7003 12.0806ZM20.3299 11.036L7.33797 3.04124L8.16691 1.77843C8.44108 1.36067 8.88965 1.11109 9.36777 1.11109C9.6226 1.11109 9.87436 1.18218 10.0956 1.31723L23.3756 9.41187L20.3299 11.036ZM17 12.1053C17 12.3959 16.7761 12.6316 16.5 12.6316C16.2239 12.6316 16 12.3959 16 12.1053C16 11.8146 16.2239 11.5789 16.5 11.5789C16.7761 11.5789 17 11.8146 17 12.1053Z" fill="url(#paint0_linear)"/>
</g>
<defs>
<linearGradient id="paint0_linear" x1="37.5" y1="10" x2="17.9878" y2="-14.3902" gradientUnits="userSpaceOnUse">
<stop stop-color="#0ED0FA"/>
<stop offset="1" stop-color="#167FEF"/>
</linearGradient>
</defs>
</svg>
