<svg width="21" height="20" viewBox="0 0 21 20" fill="none" xmlns="http://www.w3.org/2000/svg">
<g id="&#208;&#147;&#208;&#187;&#208;&#176;&#208;&#178;&#208;&#189;&#208;&#176;&#209;&#143;">
<path id="Shape" fill-rule="evenodd" clip-rule="evenodd" d="M10.7871 0.111191L20.8496 9.20218C20.9871 9.32691 21.0363 9.52712 20.9722 9.70469C20.9081 9.88226 20.7449 9.99988 20.5625 9.99988H18.375V19.5454C18.375 19.7967 18.1793 20 17.9375 20H3.06252C2.82069 20 2.625 19.7967 2.625 19.5454V9.99988H0.437527C0.25509 9.99988 0.0918486 9.88226 0.0277824 9.70469C-0.0362837 9.52712 0.0128528 9.32691 0.150419 9.20218L10.2129 0.111191C10.3778 -0.0370636 10.6222 -0.0370636 10.7871 0.111191ZM17.5 9.54536C17.5 9.2941 17.6956 9.09079 17.9375 9.09079V9.09075H19.3927L10.5 1.05667L1.60733 9.09079H3.06252C3.30434 9.09079 3.50003 9.2941 3.50003 9.54536V19.0909H17.5V9.54536Z" fill="white"/>
</g>
</svg>
