<svg width="21" height="20" viewBox="0 0 25 18" fill="none" xmlns="http://www.w3.org/2000/svg">
<g id="&#208;&#148;&#208;&#190;&#208;&#188;&#208;&#190;&#209;&#132;&#208;&#190;&#208;&#189;">
<path id="Combined Shape" fill-rule="evenodd" clip-rule="evenodd" d="M2.02924 0H22.3214C23.4401 0 24.3506 0.889835 24.3506 1.98414V15.873C24.3506 16.9673 23.4401 17.8571 22.3215 17.8571H2.02924C0.910581 17.8571 0 16.9673 0 15.873V1.98414C0 0.889835 0.910581 0 2.02924 0ZM22.3215 16.865C22.8812 16.865 23.3361 16.4199 23.3361 15.873V1.98414C23.3361 1.43727 22.8813 0.992095 22.3215 0.992095H2.02924C1.46946 0.992095 1.01464 1.43727 1.01464 1.98414V15.873C1.01464 16.4199 1.46941 16.865 2.02924 16.865H22.3215ZM11.0796 3.24675H20.5763C20.8679 3.24675 21.1039 3.46458 21.1039 3.73378V7.62986C21.1039 7.89905 20.8679 8.11688 20.5763 8.11688H11.0796C10.7879 8.11688 10.5519 7.89905 10.5519 7.62986V3.73378C10.5519 3.46458 10.7879 3.24675 11.0796 3.24675ZM11.6072 7.14283H20.0487V4.22076H11.6072V7.14283ZM11.9724 9.74026H13.1899C13.5264 9.74026 13.7987 9.92178 13.7987 10.1461C13.7987 10.3704 13.5264 10.5519 13.1899 10.5519H11.9724C11.6359 10.5519 11.3636 10.3704 11.3636 10.1461C11.3636 9.92178 11.6359 9.74026 11.9724 9.74026ZM17.2484 9.74026H16.0309C15.6944 9.74026 15.4221 9.92178 15.4221 10.1461C15.4221 10.3704 15.6944 10.5519 16.0309 10.5519H17.2484C17.5849 10.5519 17.8571 10.3704 17.8571 10.1461C17.8571 9.92178 17.5849 9.74026 17.2484 9.74026ZM19.2776 9.74026H20.4951C20.8316 9.74026 21.1039 9.92178 21.1039 10.1461C21.1039 10.3704 20.8316 10.5519 20.4951 10.5519H19.2776C18.9411 10.5519 18.6688 10.3704 18.6688 10.1461C18.6688 9.92178 18.9411 9.74026 19.2776 9.74026ZM13.1899 12.1753H11.9724C11.6359 12.1753 11.3636 12.3568 11.3636 12.5812C11.3636 12.8055 11.6359 12.987 11.9724 12.987H13.1899C13.5264 12.987 13.7987 12.8055 13.7987 12.5812C13.7986 12.3568 13.5264 12.1753 13.1899 12.1753ZM16.0309 12.1753H17.2484C17.5849 12.1753 17.8571 12.3568 17.8571 12.5812C17.8571 12.8055 17.5849 12.987 17.2484 12.987H16.0309C15.6944 12.987 15.4221 12.8055 15.4221 12.5812C15.4221 12.3568 15.6944 12.1753 16.0309 12.1753ZM20.4951 12.1753H19.2776C18.9411 12.1753 18.6688 12.3568 18.6688 12.5812C18.6688 12.8055 18.9411 12.987 19.2776 12.987H20.4951C20.8316 12.987 21.1039 12.8055 21.1039 12.5812C21.1039 12.3568 20.8316 12.1753 20.4951 12.1753ZM11.9724 13.7987H13.1899C13.5264 13.7987 13.7986 13.9802 13.7987 14.2045C13.7987 14.4289 13.5264 14.6104 13.1899 14.6104H11.9724C11.6359 14.6104 11.3636 14.4289 11.3636 14.2045C11.3636 13.9802 11.6359 13.7987 11.9724 13.7987ZM17.2484 13.7987H16.0309C15.6944 13.7987 15.4221 13.9802 15.4221 14.2045C15.4221 14.4289 15.6944 14.6104 16.0309 14.6104H17.2484C17.5849 14.6104 17.8571 14.4289 17.8571 14.2045C17.8571 13.9802 17.5849 13.7987 17.2484 13.7987ZM19.2776 13.7987H20.4951C20.8316 13.7987 21.1039 13.9802 21.1039 14.2045C21.1039 14.4289 20.8316 14.6104 20.4951 14.6104H19.2776C18.9411 14.6104 18.6688 14.4289 18.6688 14.2045C18.6688 13.9802 18.9411 13.7987 19.2776 13.7987ZM4.59958 4.05844H6.76406C7.06316 4.05844 7.30519 3.87692 7.30519 3.6526C7.30519 3.42827 7.06316 3.24675 6.76406 3.24675H4.59958C4.30047 3.24675 4.05844 3.42827 4.05844 3.6526C4.05844 3.87696 4.30047 4.05844 4.59958 4.05844ZM3.73378 4.87013H7.62986C7.89905 4.87013 8.11688 5.05166 8.11688 5.27596C8.11688 5.50029 7.89905 5.68182 7.62986 5.68182H3.73378C3.46458 5.68182 3.24675 5.50029 3.24675 5.27599C3.24675 5.05166 3.46458 4.87013 3.73378 4.87013ZM6.76406 8.11688C7.06316 8.11688 7.30519 7.93536 7.30519 7.71104C7.30519 7.48672 7.06316 7.30519 6.76406 7.30519H4.59958C4.30047 7.30519 4.05844 7.48672 4.05844 7.71104C4.05844 7.93536 4.30047 8.11688 4.59958 8.11688H6.76406ZM5.68182 9.74026C4.33875 9.74026 3.24675 10.8327 3.24675 12.1753C3.24675 13.518 4.33875 14.6104 5.68182 14.6104C7.02493 14.6104 8.11688 13.5179 8.11688 12.1753C8.11688 10.8327 7.02493 9.74026 5.68182 9.74026ZM5.68182 13.6364C4.87614 13.6364 4.22077 12.981 4.22077 12.1753C4.22077 11.3697 4.87614 10.7143 5.68182 10.7143C6.48749 10.7143 7.14287 11.3697 7.14287 12.1753C7.14287 12.981 6.48749 13.6364 5.68182 13.6364Z" fill="url(#paint0_linear)"/>
</g>
<defs>
<linearGradient id="paint0_linear" x1="36.526" y1="8.92857" x2="19.4946" y2="-14.296" gradientUnits="userSpaceOnUse">
<stop stop-color="#0ED0FA"/>
<stop offset="1" stop-color="#167FEF"/>
</linearGradient>
</defs>
</svg>
