<svg width="292" height="99" viewBox="0 0 292 99" fill="none" xmlns="http://www.w3.org/2000/svg">
<path fill-rule="evenodd" clip-rule="evenodd" d="M11.136 0H0V33.6H10.704L22.224 16.176V33.6H33.36V0H22.704L11.136 17.472V0ZM72.432 33.6V0H61.104V11.904H50.64V0H39.312V33.6H50.64V21.216H61.104V33.6H72.432ZM106.992 8.784H97.152V33.6H86.016V8.784H76.176V0H106.992V8.784ZM138.672 33.6V25.056H121.872V20.64H136.08V12.48H121.872V8.544H138.048V0H110.736V33.6H138.672ZM159.456 0C162.56 0 165.264 0.511995 167.568 1.536C169.872 2.56001 171.648 4.03199 172.896 5.952C174.144 7.87201 174.768 10.112 174.768 12.672C174.768 15.232 174.144 17.472 172.896 19.392C171.648 21.312 169.872 22.784 167.568 23.808C165.264 24.832 162.56 25.344 159.456 25.344H154.608V33.6H143.28V0H159.456ZM162.192 15.576C161.424 16.264 160.272 16.608 158.736 16.608H154.608V8.736H158.736C160.272 8.736 161.424 9.08 162.192 9.768C162.96 10.456 163.344 11.424 163.344 12.672C163.344 13.92 162.96 14.888 162.192 15.576ZM211.776 0V33.6H200.448V21.216H189.984V33.6H178.656V0H189.984V11.904H200.448V0H211.776ZM245.664 33.6V25.056H228.864V20.64H243.072V12.48H228.864V8.544H245.04V0H217.728V33.6H245.664ZM278.88 8.784H269.04V33.6H257.904V8.784H248.064V0H278.88V8.784ZM33.12 91.6V58H21.792V69.904H11.328V58H0V91.6H11.328V79.216H21.792V91.6H33.12ZM65.04 91.6L62.784 85.744H50.016L47.76 91.6H36.24L50.928 58H62.064L76.752 91.6H65.04ZM56.4 69.136L59.664 77.584H53.136L56.4 69.136ZM105.696 73.984C107.584 74.656 109.024 75.656 110.016 76.984C111.008 78.312 111.504 79.936 111.504 81.856C111.504 84.864 110.312 87.24 107.928 88.984C105.544 90.728 102.176 91.6 97.824 91.6H79.872V58H96.912C101.072 58 104.296 58.768 106.584 60.304C108.872 61.84 110.016 64 110.016 66.784C110.016 68.384 109.64 69.792 108.888 71.008C108.136 72.224 107.072 73.216 105.696 73.984ZM95.808 70.912H91.008V65.92H95.808C97.664 65.92 98.592 66.768 98.592 68.464C98.592 70.096 97.664 70.912 95.808 70.912ZM97.296 83.68C99.152 83.68 100.08 82.784 100.08 80.992C100.08 79.264 99.152 78.4 97.296 78.4H91.008V83.68H97.296ZM122.832 90.136C125.68 91.624 128.88 92.368 132.432 92.368C135.696 92.368 138.608 91.792 141.168 90.64C143.728 89.488 145.84 87.824 147.504 85.648L140.352 79.264C138.272 81.888 135.824 83.2 133.008 83.2C130.64 83.2 128.736 82.44 127.296 80.92C125.856 79.4 125.136 77.36 125.136 74.8C125.136 72.24 125.856 70.2 127.296 68.68C128.736 67.16 130.64 66.4 133.008 66.4C135.824 66.4 138.272 67.712 140.352 70.336L147.504 63.952C145.84 61.776 143.728 60.112 141.168 58.96C138.608 57.808 135.696 57.232 132.432 57.232C128.88 57.232 125.68 57.976 122.832 59.464C119.984 60.952 117.752 63.032 116.136 65.704C114.52 68.376 113.712 71.408 113.712 74.8C113.712 78.192 114.52 81.224 116.136 83.896C117.752 86.568 119.984 88.648 122.832 90.136ZM178.848 83.056V91.6H150.912V58H178.224V66.544H162.048V70.48H176.256V78.64H162.048V83.056H178.848ZM194.592 66.784H209.04V58H183.456V91.6H194.592V66.784ZM250.464 82.816V98.176H240.096V91.6H220.992V98.176H210.624V82.816H211.584C213.536 82.816 214.912 81.584 215.712 79.12C216.512 76.656 217.024 73.024 217.248 68.224L217.632 58H246.048V82.816H250.464ZM226.32 77.416C226.704 75.16 226.96 72.416 227.088 69.184L227.184 66.784H234.912V82.816H224.544C225.344 81.472 225.936 79.672 226.32 77.416ZM277.968 85.744H265.2L262.944 91.6H251.424L266.112 58H277.248L291.936 91.6H280.224L277.968 85.744ZM271.584 69.136L274.848 77.584H268.32L271.584 69.136Z" fill="url(#paint0_linear)"/>
<defs>
<linearGradient id="paint0_linear" x1="0" y1="98.176" x2="291.936" y2="98.176" gradientUnits="userSpaceOnUse">
<stop stop-color="#0ED0FA"/>
<stop offset="1" stop-color="#5530EA"/>
</linearGradient>
</defs>
</svg>
