<svg width="21" height="20" viewBox="0 0 25 18" fill="none" xmlns="http://www.w3.org/2000/svg">
<g id="&#208;&#152;&#208;&#189;&#209;&#130;&#208;&#181;&#209;&#128;&#208;&#189;&#208;&#181;&#209;&#130;">
<path id="Shape" fill-rule="evenodd" clip-rule="evenodd" d="M24.2724 4.59603C20.9783 1.63193 16.6973 0 12.218 0C7.73875 0 3.4578 1.63193 0.163682 4.59603C-0.0426381 4.78158 -0.0555719 5.09496 0.134331 5.29599L11.8432 17.6968C11.9396 17.799 12.0758 17.8571 12.218 17.8571C12.3602 17.8571 12.4964 17.799 12.5928 17.6968L24.3018 5.29599C24.4917 5.09496 24.4787 4.78153 24.2724 4.59603ZM12.218 16.6287L9.55377 13.8069C11.1174 12.6694 13.3178 12.6687 14.8823 13.8069L12.218 16.6287ZM12.218 11.9047C13.4372 11.9047 14.6039 12.3305 15.5733 13.0751L17.6593 10.8657C16.1217 9.61807 14.2109 8.92848 12.2181 8.92848C10.2253 8.92848 8.31447 9.61812 6.77692 10.8657L8.86275 13.075C9.83188 12.3304 10.9985 11.9047 12.218 11.9047ZM18.3483 10.136C16.6217 8.71987 14.4671 7.93648 12.2181 7.93648C9.96909 7.93648 7.81453 8.71982 6.08789 10.136L4.03972 7.96675C6.32753 6.03144 9.20953 4.96029 12.218 4.96029C15.226 4.96029 18.1079 6.03139 20.3966 7.96656L18.3483 10.136ZM12.2181 3.96824C15.4827 3.96824 18.6083 5.133 21.0856 7.23689L23.2031 4.99423C20.1521 2.40992 16.2713 0.992048 12.2181 0.992048C8.16485 0.992048 4.28408 2.40992 1.23308 4.99423L3.35032 7.23665C5.82755 5.13304 8.95309 3.96824 12.2181 3.96824Z" fill="url(#paint0_linear)"/>
</g>
<defs>
<linearGradient id="paint0_linear" x1="36.6541" y1="8.92857" x2="19.6408" y2="-14.3529" gradientUnits="userSpaceOnUse">
<stop stop-color="#0ED0FA"/>
<stop offset="1" stop-color="#167FEF"/>
</linearGradient>
</defs>
</svg>
