<svg width="21" height="20" viewBox="0 0 14 20" fill="none" xmlns="http://www.w3.org/2000/svg">
<g id="&#208;&#154;&#208;&#190;&#208;&#189;&#209;&#130;&#208;&#176;&#208;&#186;&#209;&#130;&#209;&#139;">
<path id="Combined Shape" fill-rule="evenodd" clip-rule="evenodd" d="M11.6797 0H1.67968C0.760891 0 0.0130005 0.747461 0.0130005 1.66668V18.3334C0.0130005 19.2525 0.760891 20 1.67968 20H11.6797C12.5985 20 13.3464 19.2525 13.3464 18.3333V1.66668C13.3464 0.747461 12.5985 0 11.6797 0ZM12.513 18.3333C12.513 18.7927 12.1394 19.1666 11.6797 19.1666H1.67968C1.21988 19.1666 0.84636 18.7927 0.84636 18.3333V16.6666H12.513V18.3333H12.513ZM0.84636 1.66668V15.8333H12.513V1.66668C12.513 1.2073 12.1395 0.833359 11.6797 0.833359H1.67968C1.21991 0.833359 0.84636 1.2073 0.84636 1.66668ZM6.263 2.5H7.09632C7.32663 2.5 7.513 2.31363 7.513 2.08332C7.513 1.85301 7.32663 1.66664 7.09632 1.66664H6.263C6.03269 1.66664 5.84632 1.85301 5.84632 2.08332C5.84636 2.31363 6.03273 2.5 6.263 2.5ZM7.92968 18.3333H5.42968C5.19937 18.3333 5.013 18.147 5.013 17.9167C5.013 17.6864 5.19937 17.5 5.42968 17.5H7.92968C8.15999 17.5 8.34636 17.6863 8.34636 17.9166C8.34636 18.147 8.15999 18.3333 7.92968 18.3333ZM11.263 2.5C11.4931 2.5 11.6797 2.31345 11.6797 2.08332C11.6797 1.85319 11.4931 1.66664 11.263 1.66664C11.0329 1.66664 10.8463 1.85319 10.8463 2.08332C10.8463 2.31345 11.0329 2.5 11.263 2.5ZM5.42968 9.16668C6.57878 9.16668 7.513 8.23203 7.513 7.08336C7.513 5.93469 6.57878 5 5.42968 5C4.28058 5 3.34636 5.93465 3.34636 7.08332C3.34636 8.23199 4.28058 9.16668 5.42968 9.16668ZM5.42968 5.83332C6.11898 5.83332 6.67968 6.39402 6.67968 7.08332C6.67968 7.77262 6.11898 8.33332 5.42968 8.33332C4.74038 8.33332 4.17968 7.77262 4.17968 7.08332C4.17968 6.39406 4.74038 5.83332 5.42968 5.83332ZM5.42968 9.58336C6.57874 9.58336 7.6139 10.0509 8.2796 10.4431C8.83464 10.7707 9.17968 11.4066 9.17968 12.1029V12.3698C9.17968 12.9012 8.77929 13.3333 8.28695 13.3333H2.57241C2.08007 13.3333 1.67968 12.9012 1.67968 12.3698V12.1029C1.67968 11.4066 2.02472 10.7707 2.57976 10.4431C3.24542 10.0509 4.28062 9.58336 5.42968 9.58336ZM8.28695 12.5C8.29671 12.5 8.34636 12.4565 8.34636 12.3698V12.1029C8.34636 11.7061 8.15429 11.3367 7.85644 11.1609C7.28027 10.8216 6.39159 10.4167 5.42968 10.4167C4.46777 10.4167 3.57909 10.8215 3.00292 11.1609C2.70507 11.3367 2.513 11.7062 2.513 12.1029V12.3698C2.513 12.4564 2.56265 12.5 2.57241 12.5H8.28695ZM8.763 6.66668H11.263C11.4933 6.66668 11.6797 6.85305 11.6797 7.08336C11.6797 7.31367 11.4933 7.50004 11.263 7.50004H8.763C8.53269 7.50004 8.34632 7.31367 8.34632 7.08336C8.34632 6.85305 8.53269 6.66668 8.763 6.66668Z" fill="url(#paint0_linear)"/>
</g>
<defs>
<linearGradient id="paint0_linear" x1="20.013" y1="10" x2="1.55149" y2="-2.30773" gradientUnits="userSpaceOnUse">
<stop stop-color="#0ED0FA"/>
<stop offset="1" stop-color="#167FEF"/>
</linearGradient>
</defs>
</svg>
