<svg width="21" height="20" viewBox="0 0 21 20" fill="none" xmlns="http://www.w3.org/2000/svg">
<g id="&#208;&#162;&#208;&#181;&#208;&#187;&#208;&#181;&#209;&#132;&#208;&#190;&#208;&#189;">
<path id="Shape" fill-rule="evenodd" clip-rule="evenodd" d="M15.5705 12.5597C16.7668 12.9362 18.0292 13.1277 19.3149 13.1277C20.244 13.1277 20.9999 13.8477 21 14.7325V18.3952C21 19.2801 20.2441 20 19.3149 20C8.66456 20 0 11.7481 0 1.60479C0 0.719948 0.755943 0 1.68503 0H5.54163C6.47077 0 7.22672 0.719948 7.22666 1.6049C7.22666 2.8299 7.42835 4.03161 7.82538 5.17693C8.01853 5.76286 7.85732 6.38734 7.40784 6.81484L5.67781 9.00505C7.11958 11.5934 8.80636 13.1994 11.5447 14.5915L13.906 12.8939C14.2951 12.5163 14.9741 12.366 15.5705 12.5597ZM19.3149 18.8889C19.6009 18.8889 19.8333 18.6676 19.8333 18.3952V14.7326C19.8333 14.4602 19.6009 14.2389 19.3149 14.2389C17.9044 14.2389 16.5196 14.0283 15.1985 13.6128C15.0128 13.5526 14.8071 13.5992 14.6699 13.7299L11.9532 15.6901C11.7743 15.8187 11.5327 15.8393 11.3357 15.7411C8.09603 14.1602 6.10732 12.2661 4.47069 9.20245C4.36985 9.01312 4.39096 8.78578 4.52538 8.61599L6.5306 6.08677C6.72655 5.8925 6.77555 5.70156 6.71517 5.51708C6.28166 4.2676 6.06007 2.9487 6.06007 1.60484C6.06007 1.3325 5.82765 1.11115 5.54169 1.11115H1.68508C1.39912 1.11115 1.1667 1.3325 1.1667 1.60484C1.1667 11.1355 9.30768 18.8889 19.3149 18.8889Z" fill="url(#paint0_linear)"/>
</g>
<defs>
<linearGradient id="paint0_linear" x1="31.5" y1="10" x2="11.5238" y2="-10.975" gradientUnits="userSpaceOnUse">
<stop stop-color="#0ED0FA"/>
<stop offset="1" stop-color="#167FEF"/>
</linearGradient>
</defs>
</svg>
