<svg width="21" height="20" viewBox="0 0 25 20" fill="none" xmlns="http://www.w3.org/2000/svg">
<g id="&#208;&#162;&#208;&#181;&#208;&#187;&#208;&#181;&#208;&#178;&#208;&#184;&#208;&#180;&#208;&#181;&#208;&#189;&#208;&#184;&#208;&#181;">
<path id="Shape" fill-rule="evenodd" clip-rule="evenodd" d="M22.9167 0H2.08335C0.934863 0 0 0.958281 0 2.13676V14.9572C0 16.1357 0.934863 17.094 2.08335 17.094H10.9375V18.1624H7.8125C7.52461 18.1624 7.29165 18.4013 7.29165 18.6966C7.29165 18.9918 7.52461 19.2308 7.8125 19.2308H17.1875C17.4754 19.2308 17.7083 18.9918 17.7083 18.6966C17.7083 18.4013 17.4754 18.1624 17.1875 18.1624H14.0625V17.094H22.9167C24.0651 17.094 25 16.1357 25 14.9572V2.13676C25 0.958281 24.0651 0 22.9167 0ZM13.0209 18.1624H11.9792V17.094H13.0209V18.1624ZM22.9167 16.0256C23.4914 16.0256 23.9583 15.5462 23.9583 14.9572V2.13676C23.9583 1.54782 23.4915 1.06841 22.9167 1.06841H2.08335C1.50864 1.06841 1.0417 1.54782 1.0417 2.13676V14.9572C1.0417 15.5462 1.50859 16.0256 2.08335 16.0256H22.9167Z" fill="url(#paint0_linear)"/>
</g>
<defs>
<linearGradient id="paint0_linear" x1="37.5" y1="9.61539" x2="18.9126" y2="-14.5482" gradientUnits="userSpaceOnUse">
<stop stop-color="#0ED0FA"/>
<stop offset="1" stop-color="#167FEF"/>
</linearGradient>
</defs>
</svg>
