<svg width="21" height="20" viewBox="0 0 21 20" fill="none" xmlns="http://www.w3.org/2000/svg">
<g id="&#208;&#163;&#208;&#188;&#208;&#189;&#209;&#139;&#208;&#185; &#208;&#180;&#208;&#190;&#208;&#188;">
<path id="Combined Shape" fill-rule="evenodd" clip-rule="evenodd" d="M20.8496 9.20218L10.7871 0.111191C10.6222 -0.0370636 10.3778 -0.0370636 10.2129 0.111191L0.150419 9.20218C0.0128528 9.32691 -0.0362837 9.52712 0.0277824 9.70469C0.0918486 9.88226 0.25509 9.99988 0.437527 9.99988H2.625V19.5454C2.625 19.7967 2.82069 20 3.06252 20H17.9375C18.1793 20 18.375 19.7967 18.375 19.5454V9.99988H20.5625C20.7449 9.99988 20.9081 9.88226 20.9722 9.70469C21.0363 9.52712 20.9871 9.32691 20.8496 9.20218ZM17.9375 9.09079C17.6956 9.09079 17.5 9.2941 17.5 9.54536V19.0909H3.50003V9.54536C3.50003 9.2941 3.30434 9.09079 3.06252 9.09079H1.60733L10.5 1.05667L19.3927 9.09075H17.9375V9.09079ZM10.0625 7.72714V8.1817H8.75V7.72714C8.75 7.47589 8.55432 7.27258 8.31249 7.27258C8.07067 7.27258 7.87498 7.47589 7.87498 7.72714V8.26544C7.50437 8.40279 7.21275 8.70573 7.08059 9.09079H6.56249C6.32066 9.09079 6.12498 9.2941 6.12498 9.54536C6.12498 9.79661 6.32066 9.99992 6.56249 9.99992H7V11.3636H6.56249C6.32066 11.3636 6.12498 11.5669 6.12498 11.8181C6.12498 12.0694 6.32066 12.2727 6.56249 12.2727H7V13.6364H6.56249C6.32066 13.6364 6.12498 13.8397 6.12498 14.0909C6.12498 14.3422 6.32066 14.5455 6.56249 14.5455H7.08059C7.21279 14.9305 7.50437 15.2335 7.87498 15.3709V15.9091C7.87498 16.1604 8.07067 16.3637 8.31249 16.3637C8.55432 16.3637 8.75 16.1604 8.75 15.9091V15.4546H10.0625V15.9091C10.0625 16.1604 10.2582 16.3637 10.5 16.3637C10.7418 16.3637 10.9375 16.1604 10.9375 15.9091V15.4546H12.25V15.9091C12.25 16.1604 12.4457 16.3637 12.6875 16.3637C12.9294 16.3637 13.125 16.1604 13.125 15.9091V15.3709C13.4957 15.2335 13.7873 14.9306 13.9194 14.5455H14.4375C14.6794 14.5455 14.875 14.3422 14.875 14.0909C14.875 13.8397 14.6794 13.6364 14.4375 13.6364H14V12.2727H14.4375C14.6794 12.2727 14.875 12.0694 14.875 11.8181C14.875 11.5669 14.6794 11.3636 14.4375 11.3636H14V9.99992H14.4375C14.6794 9.99992 14.875 9.79661 14.875 9.54536C14.875 9.2941 14.6794 9.09079 14.4375 9.09079H13.9194C13.7872 8.70573 13.4957 8.40274 13.125 8.26544V7.72714C13.125 7.47589 12.9294 7.27258 12.6875 7.27258C12.4457 7.27258 12.25 7.47589 12.25 7.72714V8.1817H10.9375V7.72714C10.9375 7.47589 10.7418 7.27258 10.5 7.27258C10.2582 7.27258 10.0625 7.47589 10.0625 7.72714ZM12.6875 9.09079C12.9289 9.09079 13.125 9.29453 13.125 9.54536V14.0909C13.125 14.3417 12.9289 14.5454 12.6875 14.5454H8.31249C8.07112 14.5454 7.87498 14.3417 7.87498 14.0909V9.54531C7.87498 9.29453 8.07108 9.09075 8.31249 9.09075H12.6875V9.09079Z" fill="url(#paint0_linear)"/>
</g>
<defs>
<linearGradient id="paint0_linear" x1="31.5" y1="10" x2="11.5238" y2="-10.975" gradientUnits="userSpaceOnUse">
<stop stop-color="#0ED0FA"/>
<stop offset="1" stop-color="#167FEF"/>
</linearGradient>
</defs>
</svg>
